# xmcd
#
# Track frame offsets: 
#        150
#        18315
#        34572
#        49429
#        70466
#        95938
#        108392
#        127999
#        150547
#        162945
#        186175
#
# Disc length: 2790 seconds
#
# Revision: 0
# Processed by: cddbd v1.5.2PL0 Copyright (c) Steve Scherf et al.
# Submitted via: ExactAudioCopy v0.99pb3
#
DISCID=930ae40b
DTITLE=The Blues Experience with Cash McCall - The Vintage Room
DYEAR=2007
DGENRE=Blues
TTITLE0=Helluva Time
TTITLE1=I Just Want To Make Love To You
TTITLE2=Slice Of That Pie
TTITLE3=Make A Fool Of Me
TTITLE4=Gypsy Woman
TTITLE5=I'm Ready
TTITLE6=Catch Me Before I Go
TTITLE7=Mama
TTITLE8=Bring It On Home
TTITLE9=One Touch
TTITLE10=One Touch (Instrumental)
EXTD=
EXTT0=
EXTT1=
EXTT2=
EXTT3=
EXTT4=
EXTT5=
EXTT6=
EXTT7=
EXTT8=
EXTT9=
EXTT10=
PLAYORDER=
